<svg xmlns="http://www.w3.org/2000/svg" width="65" height="71" viewBox="0 0 4.236 4.546"><g fill-rule="evenodd" stroke-width=".265" clip-rule="evenodd"><path fill="#004e9f" d="M1.905 4.55v-.208l-.424-.032v.198l-.44-.062v-.214l-.412-.106v.213C.457 4.3.077 4.128 0 4.014V1.807c.121-.085.302-.182.446-.229l.162.238.114-.332c.097-.03.228-.06.335-.087l.057.05.018-.06c.086-.028.342-.058.41-.068a.275.275 0 0 1-.135-.141c-.084.268-.407.134-.437-.094-.03.037-.047.161-.077.228-.238.38-.695-.285-.893.306V.912c.275.467.352-.06.533-.164C.353.731.172.234.001.711V.016l.198-.01C.162.063.276.197.59.083c.487-.201.43.057.574.084l.124-.161h.608l-.037.561-.144-.104c-.047-.01-.105.03-.112.077l.246.181-.01.048L1.59.578c-.017 0-.01.02-.01.04l.259.188v.04h-.011v.017h-.007c0 .01 0 .01-.01.02H1.8s0 .01-.01.01h-.048c-.01 0-.02-.01-.029-.01h-.008c-.012-.01-.02-.01-.03-.02h-.01c-.01-.01-.01-.01-.019-.01L1.64.846c-.037-.03-.077-.06-.105-.087 0-.01-.01-.01-.01-.01V.742h-.012v-.01l-.008-.01v-.01h-.01v-.02h-.01V.673c0 .017.01.037.01.057h.01v.017c.008 0 .008.01.008.01 0 .01 0 .01.013.01v.01c0 .007 0 .007.01.007v.012h.007v.008l.01.01c.027.038.067.057.094.078l.01.01c.01.01.03.01.037.017.03.01.05.02.077.02H1.828l-.007.087v.007l-.181.134c0 .057 0 .104.037.114l.134-.094v.047l-.105.085c.018.01.008.01.038.01l.057-.058h.01l-.01.048-.02.06.04.094c.084-.515.104-.991.131-1.458h.36c.038.467.05.943.135 1.458l.057-.088-.028-.066v-.038l.067.048c.018.01.038-.01.038-.01l-.115-.084v-.048l.142.105c.03-.028.05-.048.057-.125l-.218-.151-.008-.219.292-.22V.54L2.44.759v.01L2.426.72h.013l.273-.22c-.01-.055-.075-.055-.115-.065l-.181.142-.037-.562.675-.01c.03.05.067.134.107.134.248-.248.293-.04.457-.04.094-.074.171-.084.316-.094-.03.038-.068.095 0 .105.13-.094.121-.115.303-.105v.457c-.085-.161-.19-.134-.19.01.018.135 0 .239-.06.306.135-.077.182.047.25-.047v.742c-.078-.114-.018-.41-.182-.325-.084.259-.095.298-.333.171 0 .03.02.134-.02.164-.094-.164-.286-.047-.407-.228-.01 0-.03.094-.05.114-.094-.097-.171-.05-.265-.077-.097-.057-.097.01-.202.027.04.01.487.088.611.127v.104l.077-.077c.095.01.105.018.266.085l-.01.24.134-.193c.124.05.259.117.38.182v2.247c-.111.136-.615.32-.633.313l-.002-.232-.427.12v.218l-.433.065v-.211l-.41.035v.206zM1.485.674V.68.674zM.505 2.663v-.246l.133.208zm.228-.057l.077-.199.114.144zm.447-.122v-.181l.107.151zm.345-.735l.256-.017c-.087.226-.095.303-.256.541zm.978-.017c.058 0 .144.007.221.017v.487c-.164-.259-.164-.306-.22-.504zm.552.713l.077-.192v-.427l.134.028.057-.085c0 .209-.037.333.087.43l-.067.122v.2zm-.512 1.102l.226-.303h.86c-.182.144-1.001.323-1.086.303zM.63 3.234h.846l.239.295c-.256 0-.857-.17-1.085-.295zm1.494.457l-.484-.645H.2v-.172l1.095-.305c.753-.266.678-1.667.753-2.449h.181c.047.782 0 2.183.742 2.459l1.059.285v.182l-1.391.01z"/><path fill="#ffffff" d="M1.902 4.34v-.201l-.425-.045-.002.209-.433-.075v-.205l-.414-.12v.214a1.309 1.309 0 0 1-.43-.203V3.16c.85.78 2.963.76 3.82.02v.73c-.03.05-.363.18-.42.2v-.21l-.43.126v.209l-.427.077v-.21l-.41.036v.201h-.429zM2.866 2.19v-.564l-.259-.037v-.142c.229.028.457.054.688.112v.154l-.248-.057c-.01 0 0-.02-.01.58a.366.366 0 0 1-.171-.046zM.171.216c.259.21.639-.256.924.04l-.067.086C.857.122.648.454.363.35.504.608.913.255.98.396L.867.55l.057.048C.628.665.276.645.172.215zm.276.17C.618.455.847.199.98.343.8.255.571.494.447.387zm.81.346L1 .551l.342-.43h.418zM.162 1.19c.312.028.312-.57.762-.486-.248-.01-.276.476-.534.486.362.047.352-.553.742-.41-.4.028-.15.857-.97.41zm.4-.077c.133-.094.18-.4.4-.38-.23.075-.276.342-.4.38zm.61.124c-.171 0-.22-.305-.05-.41.326-.17.413.219.639.162l-.182.151v.068c-.189.04-.141-.465-.427-.294.115-.01.172 0 .219.105-.047-.057-.162-.087-.209.047.191-.201.313.171.01.171zM2.416.578l.023.144.273-.22c-.01-.055-.075-.055-.114-.065zM2.44.76V.8l.292-.22V.54zm.017.259l.01.17.142.105c.03-.027.05-.047.057-.124zm.01.208c.01.124.01.047.01.058l.067.047c.017.01.038-.01.038-.01l-.115-.085zM1.619.873l.037.03a.286.286 0 0 0 .172.038l.01-.105C1.8.987 1.525.8 1.485.675c.01.084.067.151.134.198zm.181.4l.01-.027-.104.074c.017.01.007.01.037.01zm.01-.084l.01-.154-.181.134c0 .057 0 .104.037.115zm.028-.382V.769L1.589.58c-.017 0-.01.019-.01.039zm.01-.085l.01-.154-.144-.104c-.048-.01-.105.03-.112.077zm1.142.01l-.46-.62h.154l.4.553zm.132-.097l-.38-.524.047.01.362.497zm.067-.057L2.846.121h.144l.285.4zm.543.134c.02-.047.02-.037.01-.094.087 0 .209-.373.209-.393-.114.095-.199.316-.353.316-.084-.048-.131 0-.199 0a.806.806 0 0 1-.17-.286c.016-.094.18-.161.218-.124-.077.276.218-.02.36-.01-.007.01-.16.199 0 .134.097-.087.193-.094.345-.077-.097.057-.151.057-.171.142 0 .258 0 .544-.249.392zM3.4.437c.115-.03.2-.182.276-.182-.01 0-.313.323-.276.182zm.236.151c.097-.037.172-.161.239-.218-.055.131-.142.275-.239.218zm-.8.181C2.884.732 3 .8 2.97.883A.194.194 0 0 0 2.836.77zm.333.144c-.114-.02.164.256.04.37-.265-.198-.218.115-.477-.38-.124.095.162.152.068.303-.125-.094-.209-.132-.286-.209 0-.198.256-.255.39-.124.02.03.171.288.258.276-.047-.094-.228-.209-.114-.333.171-.161.333.306.447.373.027-.125-.286-.43-.286-.447.239-.241.427.722.696.245-.269.239-.219-.265-.658-.305.076-.104.382-.122.42-.007-.038-.01-.095 0-.125.037.01.01.306.037.325.161-.06-.02-.104-.02-.144 0 .162.162.306-.094.42 0-.182.095-.154.582-.581.239-.077.027.124.104.104.238-.15-.123-.248.058-.496-.436zm.308 1.458V2.18c.065.057.286.199.353.171.065-.02.038-.04.045-.151-.067.017-.293.151-.42-.231l.013-.343c.084.01.131.03.18.057 0 .191-.038.296.095.326.125.017.115-.078.125-.249l.16.077v.629c.028.275-.315-.02-.55-.095zm-2.304-.127l.007-.732c.097-.02.383-.058.477-.058v.124l-.295.048.01.573c-.057.008-.132.018-.199.045zm-.963.467v-.857a.544.544 0 0 1 .21-.094l.2.296.17-.43c.01-.007.125-.047.212-.075l.007.743c-.057.017-.141.037-.198.067v-.486l-.192.533L.4 2.066v.504a.622.622 0 0 0-.191.141z"/><path fill="#ecbc35" d="M2.123 3.69l-.484-.645H.2v-.172l1.095-.305c.752-.266.678-1.666.752-2.449h.182c.047.783 0 2.183.742 2.459l1.058.285v.182l-1.39.01z"/><path fill="#004e9f" d="M.693 3.81l-.067-.027.057-.11-.139.08-.067-.027.1-.197.067.028-.055.109.137-.08.067.028zm.323.104l-.072-.022.023-.094.007-.02v-.003l-.077.102-.06-.02.015-.12a.076.076 0 0 1-.01.02l-.05.088-.072-.023.117-.194.085.028-.01.09a.083.083 0 0 1-.006.029.077.077 0 0 1 .018-.028l.054-.074.087.027zm.08.015l-.07-.017.02-.057.067.017zm.302.06l-.074-.013.02-.084-.082-.015-.02.084-.075-.014.05-.209.075.012-.02.082.082.016.02-.083.074.015zM1.49 4l-.07-.01.01-.06.07.01zm.266-.032a.081.081 0 0 1-.01.035c-.007.01-.02.015-.035.017-.01 0-.025 0-.04-.003l-.144-.015.008-.057.146.015.003-.027-.11-.01.006-.048.11.013.004-.028-.144-.014.007-.055.145.015c.027.002.047.007.054.015.013.01.017.025.015.047zm.084.062l-.071-.003.005-.06.071.003zm.301-.045c0 .035-.02.052-.06.052h-.178v-.213l.226-.003v.057h-.15v.028h.098a.11.11 0 0 1 .047.007c.01.008.017.02.017.04zm-.08-.007v-.027H1.98v.027zm.34.055l-.074.003-.005-.087-.084.003.005.086-.077.003-.007-.16c0-.02.005-.035.02-.046.01-.007.03-.01.054-.01l.161-.007zm-.082-.127v-.032l-.084.003v.032zm.336.047c.003.023-.002.038-.01.047-.007.01-.025.016-.052.018l-.161.012-.005-.057.15-.012-.001-.027-.102.007a.072.072 0 0 1-.045-.005.039.039 0 0 1-.018-.035l-.01-.084.075-.005.01.082.084-.008-.007-.082.074-.005zm.327.01l-.074.013-.032-.092-.008-.023-.007.122-.062.01-.057-.111c.002.007.002.014.002.022L2.75 4l-.074.013-.007-.218.09-.013.041.08c.005.01.007.02.01.03V3.86l.008-.087.089-.015zm.246-.054l-.074.015-.022-.084-.082.017.022.084-.074.015-.043-.156c-.005-.023-.002-.038.01-.047.008-.01.025-.016.05-.02l.157-.033zm-.106-.112l-.01-.03-.082.016.007.032zm.377.032l-.074.023-.032-.082-.077.025.032.079-.075.022-.08-.201.073-.022.032.077.077-.022-.03-.08.072-.022zm.244-.094l-.07.025-.04-.077-.077.027.04.08-.07.027-.074-.149c-.01-.02-.01-.034 0-.047.007-.01.022-.02.047-.027l.147-.058zm-.127-.092l-.015-.03-.08.028.015.03z"/></g></svg>