<svg xmlns="http://www.w3.org/2000/svg" fill="none" viewBox="2 0 36.07 39.79">
  <circle cx="19.824" cy="20.0001" r="14.1177" fill="none"></circle>
  <path d="M35.3215 7.97153L22.7226 0.726888C21.0443 -0.242296 18.977 -0.242296 17.2987 0.726888L4.7241 7.97153C3.04586 8.94072 2 10.7095 2 12.6478V27.1371C2 29.0755 3.04586 30.8443 4.7241 31.8134L17.323 39.0581C19.0013 40.0273 21.0687 40.0273 22.7469 39.0581L35.3458 31.8134C37.0241 30.8443 38.0699 29.0513 38.0699 27.1371V12.6478C38.0456 10.7095 36.9998 8.94072 35.3215 7.97153ZM30.603 15.6765H25.8115V27.0887H22.6253V15.6765H14.1125C13.9666 15.7735 13.845 15.8946 13.7477 16.04C13.6261 16.2096 13.5531 16.4519 13.5531 16.7184C13.5531 16.9607 13.6017 17.1545 13.699 17.3242C13.7963 17.4938 13.9422 17.6149 14.1368 17.7361C14.3314 17.8572 14.5503 17.9541 14.8178 18.0753C15.0854 18.1722 15.3773 18.2691 15.7178 18.3903C16.2042 18.5599 16.6907 18.7295 17.2257 18.9233C17.7365 19.1171 18.223 19.3594 18.6364 19.6987C19.0742 20.0136 19.4148 20.4013 19.7066 20.8859C19.9742 21.3463 20.1201 21.952 20.1201 22.6547C20.1201 23.4542 19.9742 24.1569 19.6823 24.7626C19.3904 25.3441 18.977 25.8287 18.4662 26.2164C17.9554 26.6041 17.3717 26.8948 16.7393 27.0644C16.1069 27.2341 15.4259 27.331 14.7206 27.331C13.699 27.331 12.7261 27.1614 11.7776 26.7979C10.829 26.4587 10.0507 25.9499 9.4183 25.2957L11.6559 23.0181C11.9965 23.4542 12.4586 23.7935 13.018 24.0842C13.5774 24.375 14.1368 24.5203 14.6962 24.5203C14.9395 24.5203 15.207 24.4961 15.4259 24.4477C15.6691 24.3992 15.8637 24.3023 16.0583 24.1811C16.2285 24.06 16.3745 23.9146 16.4961 23.6965C16.5934 23.5027 16.6663 23.2604 16.6663 22.9696C16.6663 22.7031 16.5934 22.4851 16.4718 22.2912C16.3501 22.0974 16.1556 21.9278 15.9123 21.7824C15.6691 21.637 15.3529 21.4916 14.9881 21.3705C14.6233 21.2493 14.2098 21.104 13.7477 20.9586C13.2855 20.8132 12.8477 20.6436 12.4099 20.4498C11.9721 20.2559 11.583 19.9894 11.2425 19.6744C10.902 19.3594 10.6344 18.996 10.4155 18.5356C10.2209 18.0995 10.0993 17.5422 10.0993 16.9123C10.0993 16.1369 10.2696 15.4585 10.5858 14.9012C10.902 14.3439 11.3154 13.8836 11.8505 13.5201C12.3613 13.1567 12.945 12.8901 13.6017 12.7448C14.2584 12.5752 14.9151 12.5025 15.5718 12.5025C15.9853 12.5025 16.8366 12.4782 16.8366 12.4782H30.5787V15.6765H30.603Z" fill="url(#paint0_linear_1737_7265)"></path>
  <defs>
    <linearGradient id="paint0_linear_1737_7265" x1="2" y1="20.3551" x2="38.0699" y2="20.3551" gradientUnits="userSpaceOnUse">
      <stop stop-color="#1A3DDD"></stop>
      <stop offset="1" stop-color="#4D67EF"></stop>
    </linearGradient>
  </defs>
</svg>